<svg id="svg" version="1.1" xmlns="http://www.w3.org/2000/svg"
    xmlns:xlink="http://www.w3.org/1999/xlink" width="400" height="400" viewBox="0, 0, 400,400">
    <g id="svgg">
        <path id="path0"
            d="M199.766 54.318 C 199.287 55.928,198.291 59.457,197.732 61.523 C 197.456 62.544,197.114 63.730,196.973 64.160 C 196.831 64.590,196.256 66.611,195.695 68.652 C 195.134 70.693,194.296 73.638,193.833 75.195 C 193.369 76.753,192.509 79.785,191.922 81.934 C 191.334 84.082,190.618 86.631,190.331 87.598 C 190.044 88.564,189.563 90.278,189.262 91.406 C 187.901 96.499,187.636 97.458,187.179 98.926 C 186.912 99.785,186.486 101.279,186.234 102.246 C 185.981 103.213,185.363 105.410,184.861 107.129 C 183.730 111.000,183.822 110.668,182.639 115.137 C 182.099 117.178,181.471 119.419,181.243 120.117 C 180.774 121.557,180.189 123.602,179.784 125.218 C 179.633 125.821,179.059 127.886,178.509 129.808 C 177.633 132.869,176.965 135.273,175.885 139.258 C 175.725 139.849,175.295 141.387,174.930 142.676 C 174.566 143.965,174.027 145.898,173.734 146.973 C 173.441 148.047,172.806 150.288,172.323 151.953 C 171.367 155.252,171.335 155.368,170.031 160.309 C 167.965 168.141,168.046 167.964,166.309 168.417 C 165.005 168.757,161.471 169.719,159.668 170.225 C 159.023 170.405,157.617 170.792,156.543 171.084 C 155.469 171.377,152.656 172.152,150.293 172.807 C 147.930 173.462,145.161 174.229,144.141 174.512 C 143.120 174.794,141.670 175.201,140.918 175.416 C 140.166 175.631,138.276 176.148,136.719 176.566 C 135.161 176.983,133.228 177.508,132.422 177.732 C 129.115 178.650,128.124 178.922,126.074 179.471 C 124.893 179.788,122.036 180.589,119.727 181.252 C 117.417 181.915,114.209 182.795,112.598 183.209 C 110.986 183.623,109.272 184.103,108.789 184.275 C 108.306 184.447,106.548 184.941,104.883 185.372 C 103.218 185.804,101.460 186.274,100.977 186.418 C 100.493 186.561,98.911 187.004,97.461 187.401 C 96.011 187.799,94.253 188.290,93.555 188.494 C 92.856 188.697,91.450 189.080,90.430 189.344 C 88.580 189.822,87.996 189.982,84.668 190.924 C 83.701 191.198,82.251 191.599,81.445 191.816 C 80.640 192.033,78.267 192.690,76.172 193.276 C 74.077 193.862,71.528 194.566,70.508 194.840 C 69.487 195.114,68.081 195.504,67.383 195.706 C 66.046 196.092,55.192 199.056,53.274 199.558 C 52.136 199.856,51.982 200.071,52.780 200.246 C 53.347 200.370,58.941 201.830,60.352 202.221 C 60.942 202.385,62.876 202.924,64.648 203.419 C 66.421 203.913,68.662 204.531,69.629 204.792 C 70.596 205.053,72.178 205.491,73.145 205.765 C 74.111 206.039,75.562 206.438,76.367 206.651 C 77.173 206.864,78.228 207.158,78.711 207.304 C 79.194 207.451,80.117 207.712,80.762 207.885 C 81.406 208.058,83.779 208.721,86.035 209.358 C 88.291 209.996,90.840 210.701,91.699 210.926 C 92.559 211.150,94.053 211.557,95.020 211.830 C 98.298 212.754,99.507 213.086,102.148 213.788 C 105.235 214.608,104.942 214.527,109.570 215.821 C 111.558 216.377,114.019 217.047,115.039 217.311 C 116.060 217.575,118.257 218.184,119.922 218.665 C 124.675 220.039,124.824 220.080,126.270 220.421 C 127.021 220.599,128.999 221.142,130.664 221.628 C 132.329 222.113,134.307 222.668,135.059 222.861 C 135.811 223.054,137.437 223.492,138.672 223.835 C 139.907 224.178,141.182 224.530,141.504 224.617 C 141.826 224.704,143.057 225.052,144.238 225.391 C 145.420 225.730,147.661 226.342,149.219 226.751 C 150.776 227.161,153.809 227.991,155.957 228.597 C 158.105 229.203,160.171 229.785,160.547 229.889 C 167.428 231.804,167.845 231.952,168.022 232.539 C 168.116 232.850,168.264 233.281,168.352 233.496 C 168.518 233.903,169.270 236.551,169.794 238.574 C 169.961 239.219,170.554 241.416,171.111 243.457 C 171.668 245.498,172.338 247.959,172.599 248.926 C 173.280 251.443,173.752 253.168,174.309 255.176 C 174.577 256.143,175.150 258.208,175.582 259.766 C 176.013 261.323,176.770 264.180,177.262 266.113 C 177.755 268.047,178.237 269.805,178.335 270.020 C 178.432 270.234,178.635 270.938,178.785 271.582 C 179.121 273.023,179.705 275.173,180.562 278.125 C 180.920 279.360,181.715 282.217,182.329 284.473 C 183.700 289.511,183.674 289.417,184.178 291.211 C 184.404 292.017,184.724 293.159,184.890 293.750 C 185.055 294.341,185.273 295.176,185.373 295.605 C 185.474 296.035,185.632 296.606,185.725 296.875 C 185.818 297.144,186.035 297.891,186.207 298.535 C 186.380 299.180,187.099 301.772,187.806 304.297 C 188.512 306.821,189.217 309.414,189.372 310.059 C 189.526 310.703,189.833 311.846,190.053 312.598 C 190.273 313.350,190.655 314.712,190.902 315.625 C 191.149 316.538,191.770 318.779,192.280 320.605 C 192.791 322.432,193.277 324.189,193.361 324.512 C 193.492 325.014,194.475 328.607,195.391 331.934 C 195.539 332.471,196.146 334.624,196.741 336.719 C 198.990 344.644,199.805 347.631,199.813 347.980 C 199.826 348.619,200.289 347.503,200.838 345.508 C 201.118 344.487,201.627 342.642,201.969 341.406 C 202.311 340.171,202.659 338.896,202.742 338.574 C 202.825 338.252,203.156 337.065,203.478 335.938 C 203.799 334.810,204.297 332.964,204.583 331.836 C 204.870 330.708,205.453 328.599,205.878 327.148 C 207.153 322.797,207.588 321.256,207.917 319.922 C 208.089 319.224,208.435 317.949,208.687 317.090 C 208.938 316.230,209.541 314.077,210.028 312.305 C 210.514 310.532,211.411 307.280,212.021 305.078 C 213.113 301.134,213.270 300.555,214.454 296.094 C 214.782 294.858,215.180 293.420,215.338 292.897 C 215.496 292.375,215.625 291.824,215.625 291.674 C 215.625 291.524,215.705 291.248,215.803 291.062 C 215.901 290.875,216.260 289.668,216.601 288.379 C 216.941 287.090,217.341 285.596,217.488 285.059 C 217.635 284.521,217.982 283.247,218.259 282.227 C 218.536 281.206,219.024 279.448,219.343 278.320 C 219.663 277.192,220.146 275.435,220.418 274.414 C 220.690 273.394,221.086 271.943,221.297 271.191 C 222.003 268.678,222.697 266.129,223.158 264.355 C 223.711 262.230,224.187 260.530,225.102 257.422 C 225.150 257.261,225.317 256.646,225.474 256.055 C 227.023 250.209,227.661 247.864,228.289 245.703 C 228.929 243.500,229.481 241.455,230.109 238.965 C 230.326 238.105,230.553 237.271,230.613 237.109 C 230.673 236.948,230.750 236.685,230.784 236.523 C 230.817 236.362,231.134 235.273,231.487 234.103 L 232.129 231.976 233.692 231.514 C 234.551 231.261,236.572 230.700,238.184 230.269 C 239.795 229.838,242.651 229.045,244.531 228.507 C 246.411 227.969,249.268 227.183,250.879 226.761 C 254.741 225.748,257.428 224.999,257.910 224.800 C 258.125 224.711,258.521 224.598,258.789 224.549 C 259.455 224.426,265.945 222.669,270.020 221.509 C 270.771 221.295,272.222 220.898,273.242 220.628 C 276.884 219.661,277.266 219.557,278.906 219.078 C 280.249 218.686,287.373 216.753,288.965 216.348 C 289.180 216.294,290.234 215.984,291.309 215.660 C 292.881 215.186,297.024 214.054,299.121 213.526 C 299.336 213.472,300.830 213.049,302.441 212.585 C 304.053 212.121,306.514 211.439,307.910 211.070 C 309.307 210.700,311.812 209.999,313.477 209.511 C 315.142 209.024,318.833 207.995,321.680 207.225 C 324.526 206.455,327.251 205.715,327.734 205.580 C 328.218 205.445,329.827 205.010,331.311 204.614 C 332.795 204.218,334.377 203.771,334.826 203.622 C 335.276 203.473,336.699 203.074,337.988 202.735 C 341.149 201.904,347.106 200.184,347.426 200.011 C 347.574 199.931,346.707 199.601,345.375 199.232 C 344.105 198.880,342.627 198.469,342.090 198.318 C 336.471 196.741,331.648 195.411,329.395 194.819 C 327.891 194.423,326.001 193.900,325.195 193.656 C 323.391 193.110,322.148 192.758,319.629 192.080 C 318.555 191.791,317.280 191.440,316.797 191.300 C 316.313 191.160,314.863 190.764,313.574 190.419 C 312.285 190.074,311.055 189.723,310.840 189.638 C 310.625 189.553,309.395 189.216,308.105 188.889 C 306.816 188.562,304.355 187.890,302.637 187.396 C 300.918 186.902,298.721 186.292,297.754 186.040 C 295.285 185.398,293.959 185.032,291.602 184.341 C 290.474 184.011,288.760 183.535,287.793 183.284 C 284.848 182.521,282.606 181.903,280.762 181.347 C 279.795 181.055,277.729 180.476,276.172 180.059 C 274.614 179.642,273.032 179.213,272.656 179.104 C 271.709 178.831,262.942 176.446,261.035 175.943 C 260.176 175.716,258.499 175.241,257.308 174.888 C 256.117 174.535,254.096 173.971,252.816 173.636 C 251.536 173.301,249.917 172.858,249.219 172.652 C 247.183 172.049,244.006 171.175,241.842 170.622 C 240.739 170.339,238.303 169.671,236.430 169.136 C 234.556 168.602,232.891 168.164,232.730 168.164 C 232.181 168.164,231.752 166.877,229.579 158.707 C 228.988 156.486,228.273 154.003,227.971 153.125 C 227.916 152.964,227.846 152.744,227.815 152.637 C 227.785 152.529,227.576 151.826,227.352 151.074 C 227.127 150.322,226.676 148.652,226.349 147.363 C 226.022 146.074,225.634 144.624,225.487 144.141 C 224.822 141.950,223.907 138.712,223.142 135.840 C 222.685 134.121,221.900 131.265,221.399 129.492 C 219.951 124.373,217.645 116.120,216.979 113.672 C 216.435 111.670,215.974 110.066,215.130 107.227 C 214.986 106.743,214.639 105.513,214.359 104.492 C 212.770 98.706,212.036 96.096,211.776 95.313 C 211.615 94.829,211.447 94.213,211.402 93.942 C 211.356 93.672,211.007 92.354,210.626 91.013 C 210.244 89.672,209.770 88.003,209.571 87.305 C 209.372 86.606,208.843 84.717,208.394 83.105 C 207.946 81.494,207.138 78.638,206.599 76.758 C 206.060 74.878,205.400 72.549,205.131 71.582 C 204.863 70.615,203.960 67.407,203.125 64.453 C 201.930 60.227,200.652 55.539,200.123 53.440 C 200.099 53.344,199.939 53.739,199.766 54.318 M200.549 105.615 C 201.398 108.962,202.507 113.013,203.020 114.648 C 203.306 115.562,203.744 117.100,203.993 118.066 C 204.242 119.033,204.729 120.835,205.077 122.070 C 205.424 123.306,205.777 124.580,205.861 124.902 C 205.945 125.225,206.189 126.060,206.403 126.758 C 206.618 127.456,206.852 128.247,206.925 128.516 C 206.998 128.784,207.132 129.268,207.224 129.590 C 207.370 130.105,208.145 133.010,208.579 134.668 C 208.836 135.653,209.415 137.575,209.578 137.988 C 209.663 138.203,209.820 138.730,209.927 139.160 C 210.034 139.590,210.257 140.425,210.423 141.016 C 212.675 149.023,213.257 151.125,214.250 154.841 C 214.689 156.483,215.169 158.196,215.316 158.649 C 215.664 159.718,216.210 161.636,216.995 164.551 C 217.671 167.063,217.860 167.732,218.623 170.313 C 218.893 171.226,219.529 173.572,220.035 175.527 L 220.957 179.082 221.758 179.275 C 226.316 180.373,228.629 180.991,229.199 181.261 C 229.574 181.439,230.618 181.725,234.473 182.708 C 235.439 182.955,237.812 183.616,239.746 184.179 C 241.680 184.741,244.536 185.548,246.094 185.972 C 247.651 186.396,249.211 186.825,249.561 186.926 C 249.910 187.027,250.481 187.191,250.830 187.291 C 251.179 187.391,251.948 187.617,252.539 187.793 C 254.106 188.260,254.549 188.382,257.031 189.032 C 260.489 189.938,262.404 190.466,266.016 191.510 C 268.171 192.133,270.662 192.821,271.289 192.967 C 271.665 193.055,272.412 193.258,272.949 193.418 C 273.944 193.715,276.771 194.514,278.711 195.046 C 279.302 195.208,280.782 195.597,282.000 195.911 C 283.217 196.226,284.293 196.532,284.390 196.591 C 284.597 196.719,288.400 197.810,291.602 198.660 C 292.837 198.988,294.353 199.390,294.971 199.554 C 296.360 199.923,296.372 200.042,295.050 200.349 C 294.475 200.483,292.915 200.897,291.583 201.270 C 290.250 201.643,288.853 202.033,288.477 202.137 C 287.062 202.527,279.242 204.697,277.344 205.226 C 276.753 205.391,275.786 205.681,275.195 205.872 C 274.604 206.063,273.374 206.407,272.461 206.636 C 271.548 206.866,270.537 207.138,270.215 207.242 C 269.674 207.417,263.682 209.073,261.426 209.672 C 257.068 210.827,255.661 211.215,253.613 211.824 C 252.324 212.207,250.654 212.685,249.902 212.887 C 245.692 214.015,242.682 214.843,241.211 215.280 C 240.298 215.551,238.320 216.105,236.816 216.512 C 235.313 216.918,232.720 217.644,231.055 218.125 C 229.390 218.606,226.617 219.371,224.894 219.825 C 220.801 220.904,220.960 220.845,220.814 221.344 C 220.691 221.768,220.460 222.621,219.458 226.367 C 219.185 227.388,218.687 229.146,218.351 230.273 C 218.015 231.401,217.491 233.291,217.186 234.473 C 216.881 235.654,216.220 238.027,215.717 239.746 C 215.215 241.465,214.500 244.058,214.129 245.508 C 213.758 246.958,213.161 249.155,212.803 250.391 C 212.446 251.626,211.913 253.516,211.621 254.590 C 211.328 255.664,210.966 256.920,210.818 257.380 C 210.669 257.840,210.547 258.331,210.547 258.470 C 210.547 258.609,210.377 259.287,210.170 259.977 C 209.606 261.853,208.198 266.901,207.805 268.457 C 207.171 270.969,206.473 273.519,205.963 275.195 C 205.685 276.108,205.189 277.910,204.861 279.199 C 204.534 280.488,204.192 281.719,204.101 281.934 C 204.010 282.148,203.894 282.544,203.843 282.813 C 203.792 283.081,203.528 284.092,203.256 285.059 C 202.640 287.252,201.097 292.908,200.441 295.381 L 200.137 296.523 199.866 295.878 C 199.717 295.523,198.844 292.504,197.926 289.169 C 197.008 285.834,196.093 282.534,195.891 281.836 C 195.690 281.138,195.120 279.072,194.625 277.246 C 194.130 275.420,193.606 273.530,193.462 273.047 C 193.317 272.563,192.923 271.157,192.587 269.922 C 192.250 268.687,191.752 266.885,191.480 265.918 C 191.207 264.951,190.545 262.534,190.007 260.547 C 188.812 256.132,188.313 254.331,187.407 251.172 C 187.022 249.829,186.349 247.368,185.913 245.703 C 185.005 242.245,184.225 239.489,184.093 239.275 C 184.043 239.194,183.568 237.465,183.038 235.433 C 182.508 233.401,181.660 230.332,181.154 228.613 C 180.648 226.895,180.148 225.137,180.042 224.707 C 179.937 224.277,179.817 223.794,179.776 223.633 C 179.735 223.472,179.577 222.827,179.423 222.199 C 179.077 220.784,179.166 220.854,177.051 220.316 C 176.084 220.071,173.315 219.299,170.898 218.602 C 168.481 217.905,165.977 217.215,165.332 217.068 C 164.688 216.922,163.853 216.713,163.477 216.604 C 163.101 216.495,161.079 215.921,158.984 215.329 C 156.890 214.738,154.868 214.165,154.492 214.057 C 153.804 213.859,149.631 212.715,147.680 212.189 C 147.102 212.033,146.565 211.867,146.488 211.818 C 146.349 211.733,139.341 209.818,138.579 209.657 C 138.367 209.612,137.664 209.411,137.017 209.210 C 136.369 209.008,135.137 208.655,134.277 208.424 C 130.301 207.356,126.171 206.217,122.949 205.299 C 121.016 204.749,118.730 204.114,117.871 203.889 C 117.012 203.664,115.078 203.137,113.574 202.719 C 109.451 201.573,106.882 200.869,105.420 200.484 C 103.887 200.081,103.787 199.900,104.932 199.607 C 105.388 199.490,106.333 199.230,107.031 199.029 C 107.729 198.828,110.410 198.074,112.988 197.355 C 115.566 196.636,119.521 195.530,121.777 194.899 C 126.527 193.569,132.841 191.823,133.691 191.605 C 134.014 191.522,135.332 191.146,136.621 190.769 C 137.910 190.391,140.195 189.758,141.699 189.361 C 143.203 188.964,145.444 188.345,146.680 187.985 C 149.214 187.245,153.517 186.062,155.566 185.540 C 156.318 185.349,157.813 184.928,158.887 184.605 C 160.529 184.111,170.475 181.342,172.363 180.852 C 174.896 180.196,178.837 179.045,178.961 178.925 C 179.044 178.844,179.467 177.467,179.901 175.864 C 180.987 171.847,181.504 169.971,182.184 167.578 C 182.505 166.450,182.964 164.780,183.204 163.867 C 183.651 162.163,184.068 160.695,184.783 158.301 C 185.008 157.549,185.540 155.615,185.967 154.004 C 187.215 149.286,187.238 149.201,187.789 147.363 C 188.261 145.791,189.055 142.939,190.048 139.258 C 190.236 138.560,190.612 137.241,190.882 136.328 C 191.153 135.415,191.602 133.789,191.881 132.715 C 192.159 131.641,192.557 130.190,192.764 129.492 C 192.972 128.794,193.205 127.959,193.283 127.637 C 193.444 126.974,193.447 126.963,193.610 126.563 C 193.774 126.158,194.494 123.673,195.024 121.680 C 195.267 120.767,195.697 119.185,195.979 118.164 C 196.435 116.514,196.642 115.779,197.271 113.574 C 197.815 111.668,199.805 104.136,199.805 103.983 C 199.805 103.391,200.210 104.281,200.549 105.615 M199.545 127.391 C 199.163 128.985,198.147 132.680,196.764 137.500 C 195.608 141.534,195.202 143.005,194.640 145.215 C 194.284 146.611,193.666 148.853,193.267 150.195 C 192.868 151.538,192.297 153.560,192.000 154.688 C 191.502 156.571,189.494 163.681,188.748 166.198 C 188.576 166.781,188.229 168.055,187.978 169.030 C 187.576 170.591,186.049 176.129,184.428 181.909 C 183.786 184.198,184.451 183.819,178.027 185.555 C 175.557 186.223,173.008 186.922,172.363 187.110 C 169.212 188.024,166.587 188.748,165.527 188.995 C 164.883 189.145,164.180 189.349,163.965 189.447 C 163.750 189.545,163.267 189.683,162.891 189.752 C 162.515 189.822,161.196 190.181,159.961 190.551 C 158.726 190.920,157.407 191.308,157.031 191.413 C 156.035 191.691,151.922 192.800,151.465 192.914 C 151.250 192.968,150.239 193.255,149.219 193.552 C 148.198 193.850,146.484 194.326,145.410 194.611 C 143.167 195.205,142.943 195.266,139.648 196.179 C 138.306 196.551,135.977 197.173,134.473 197.561 C 132.969 197.950,130.728 198.561,129.492 198.919 C 128.257 199.277,126.983 199.630,126.660 199.703 C 125.966 199.861,126.439 200.391,127.274 200.391 C 127.517 200.391,127.918 200.472,128.165 200.571 C 128.411 200.671,130.195 201.160,132.129 201.659 C 134.063 202.158,136.787 202.902,138.184 203.311 C 139.580 203.721,141.382 204.214,142.188 204.408 C 142.993 204.602,143.736 204.832,143.838 204.919 C 143.940 205.007,144.187 205.078,144.387 205.078 C 144.587 205.078,145.163 205.202,145.666 205.354 C 149.019 206.365,152.676 207.397,153.711 207.624 C 154.630 207.826,157.134 208.522,161.719 209.852 C 163.813 210.459,165.879 211.029,166.309 211.118 C 166.738 211.207,167.881 211.521,168.848 211.816 C 169.814 212.110,172.188 212.778,174.121 213.298 C 185.097 216.254,183.830 215.750,184.263 217.336 C 185.049 220.211,185.370 221.370,186.633 225.879 C 188.520 232.619,188.572 232.811,189.421 236.035 C 189.845 237.646,190.519 240.063,190.919 241.406 C 191.613 243.738,191.916 244.814,192.679 247.656 C 192.867 248.354,193.141 249.365,193.289 249.902 C 194.292 253.543,194.985 256.131,195.615 258.594 C 196.014 260.151,196.462 261.821,196.612 262.305 C 197.054 263.730,197.406 264.964,198.258 268.066 C 198.700 269.678,199.177 271.392,199.318 271.875 C 199.459 272.358,199.631 273.008,199.701 273.319 C 199.908 274.250,200.160 273.701,201.094 270.292 C 203.204 262.583,203.752 260.615,203.914 260.156 C 204.009 259.888,204.301 258.833,204.563 257.813 C 204.825 256.792,205.496 254.331,206.053 252.344 C 206.610 250.356,207.283 247.896,207.548 246.875 C 207.813 245.854,208.115 244.712,208.220 244.336 C 208.324 243.960,208.450 243.477,208.499 243.262 C 208.635 242.671,209.771 238.838,209.976 238.281 C 210.075 238.013,210.501 236.431,210.923 234.766 C 211.345 233.101,211.823 231.299,211.984 230.762 C 212.556 228.856,214.260 222.761,215.683 217.525 C 216.077 216.074,216.126 215.999,216.788 215.815 C 218.529 215.331,223.509 213.986,225.098 213.570 C 226.064 213.317,227.471 212.923,228.223 212.696 C 230.223 212.089,233.125 211.277,236.230 210.454 C 237.734 210.055,239.332 209.608,239.780 209.462 C 240.549 209.210,247.046 207.403,253.418 205.669 C 257.449 204.572,261.717 203.384,264.551 202.570 C 265.303 202.354,267.280 201.823,268.945 201.389 C 270.610 200.955,272.441 200.440,273.013 200.244 L 274.053 199.888 270.962 199.041 C 269.262 198.575,267.494 198.073,267.034 197.925 C 266.574 197.777,266.065 197.656,265.902 197.656 C 265.740 197.656,264.886 197.433,264.005 197.160 C 263.123 196.887,262.095 196.582,261.719 196.481 C 261.343 196.380,260.420 196.127,259.668 195.920 C 258.916 195.712,257.070 195.216,255.566 194.819 C 254.063 194.421,251.821 193.792,250.586 193.421 C 249.351 193.051,247.681 192.584,246.875 192.385 C 245.092 191.944,242.015 191.108,238.867 190.210 C 238.491 190.102,237.788 189.926,237.305 189.819 C 236.821 189.711,236.294 189.572,236.133 189.509 C 235.709 189.344,232.761 188.513,231.055 188.078 C 230.249 187.873,229.414 187.617,229.199 187.510 C 228.984 187.403,226.655 186.740,224.023 186.037 C 216.004 183.893,216.163 183.946,215.999 183.396 C 215.558 181.925,214.830 179.352,214.370 177.637 C 214.082 176.563,213.767 175.420,213.671 175.098 C 213.458 174.383,212.685 171.499,212.598 171.094 C 212.563 170.933,212.404 170.405,212.245 169.922 C 212.085 169.438,211.681 168.032,211.346 166.797 C 209.544 160.147,209.128 158.656,208.970 158.301 C 208.875 158.086,208.348 156.240,207.799 154.199 C 207.251 152.158,206.497 149.390,206.125 148.047 C 205.485 145.739,205.205 144.708,204.309 141.357 C 204.100 140.579,203.748 139.326,203.525 138.574 C 203.303 137.822,202.636 135.449,202.044 133.301 C 201.452 131.152,200.841 128.955,200.686 128.418 C 200.531 127.881,200.347 127.199,200.278 126.902 C 200.062 125.980,199.848 126.123,199.545 127.391 "
            stroke="none" fill="#040504" fill-rule="evenodd"></path>
        <path id="path1"
            d="M0.000 200.000 L 0.000 400.000 200.000 400.000 L 400.000 400.000 400.000 200.000 L 400.000 0.000 200.000 0.000 L 0.000 0.000 0.000 200.000 M200.310 53.662 C 200.378 53.958,200.679 55.078,200.980 56.152 C 201.282 57.227,201.713 58.853,201.939 59.766 C 202.166 60.679,202.567 62.129,202.832 62.988 C 203.097 63.848,203.981 66.924,204.796 69.824 C 205.612 72.725,206.501 75.889,206.773 76.855 C 207.045 77.822,207.558 79.712,207.914 81.055 C 208.627 83.748,209.437 86.538,209.898 87.891 C 210.062 88.374,210.541 90.132,210.960 91.797 C 211.380 93.462,211.900 95.358,212.116 96.011 C 212.333 96.664,212.547 97.392,212.592 97.628 C 212.638 97.864,212.894 98.780,213.161 99.664 C 213.428 100.547,213.861 102.104,214.122 103.125 C 214.383 104.146,215.013 106.387,215.523 108.105 C 216.408 111.087,216.915 112.927,218.057 117.285 C 218.338 118.359,218.733 119.722,218.936 120.313 C 219.138 120.903,219.541 122.310,219.832 123.438 C 220.123 124.565,220.667 126.543,221.041 127.832 C 222.147 131.644,224.084 138.634,224.452 140.137 C 224.557 140.566,224.713 141.094,224.799 141.309 C 224.885 141.523,225.047 142.051,225.159 142.480 C 225.272 142.910,225.498 143.745,225.662 144.336 C 225.993 145.528,227.300 150.352,227.541 151.270 C 227.626 151.592,227.884 152.427,228.116 153.125 C 228.347 153.823,228.657 154.878,228.804 155.469 C 229.543 158.450,231.977 166.936,232.253 167.496 C 232.386 167.767,232.791 167.984,233.463 168.145 C 234.018 168.278,234.648 168.459,234.863 168.547 C 235.078 168.635,235.781 168.846,236.426 169.015 C 237.070 169.184,238.389 169.542,239.355 169.810 C 240.322 170.078,241.772 170.467,242.578 170.675 C 243.384 170.883,244.867 171.292,245.873 171.583 C 246.880 171.874,247.803 172.131,247.924 172.155 C 248.045 172.178,248.804 172.390,249.609 172.626 C 250.415 172.862,251.382 173.134,251.758 173.231 C 254.169 173.851,256.115 174.391,258.105 174.992 C 258.750 175.187,259.717 175.452,260.254 175.582 C 260.791 175.711,261.406 175.891,261.621 175.981 C 261.836 176.070,262.363 176.199,262.793 176.267 C 263.223 176.335,263.838 176.474,264.160 176.576 C 266.134 177.198,272.929 179.097,275.977 179.878 C 276.890 180.112,278.472 180.555,279.492 180.862 C 281.362 181.426,283.893 182.120,285.156 182.415 C 286.590 182.750,289.779 183.630,291.197 184.082 C 292.011 184.341,293.379 184.739,294.238 184.966 C 297.301 185.775,302.463 187.190,307.031 188.473 C 311.066 189.606,311.954 189.844,312.151 189.844 C 312.276 189.844,313.088 190.062,313.953 190.328 C 315.712 190.870,318.598 191.676,321.680 192.485 C 322.808 192.782,324.346 193.225,325.098 193.471 C 326.631 193.972,328.245 194.415,332.520 195.506 C 334.131 195.918,336.152 196.476,337.012 196.746 C 338.738 197.290,341.500 198.067,343.750 198.643 C 346.454 199.335,348.342 199.958,348.047 200.061 C 347.447 200.269,344.896 200.988,340.723 202.125 C 338.359 202.769,335.195 203.642,333.691 204.066 C 332.188 204.489,329.243 205.296,327.148 205.858 C 325.054 206.421,323.164 206.949,322.949 207.033 C 322.734 207.117,320.845 207.643,318.750 208.203 C 315.170 209.159,313.539 209.612,310.254 210.561 C 309.031 210.915,305.555 211.885,304.004 212.306 C 303.682 212.394,301.924 212.873,300.098 213.372 C 298.271 213.870,295.942 214.502,294.922 214.774 C 293.901 215.047,292.671 215.385,292.188 215.525 C 291.704 215.665,290.298 216.059,289.063 216.401 C 284.410 217.689,283.399 217.970,279.688 219.009 C 277.593 219.595,274.341 220.491,272.461 221.000 C 270.581 221.508,268.428 222.095,267.676 222.304 C 266.924 222.512,265.825 222.813,265.234 222.973 C 264.644 223.132,263.501 223.442,262.695 223.661 C 261.890 223.881,260.439 224.265,259.473 224.514 C 258.506 224.764,257.012 225.184,256.152 225.447 C 255.293 225.710,253.491 226.212,252.148 226.562 C 250.806 226.913,248.960 227.416,248.047 227.681 C 247.134 227.947,245.452 228.416,244.309 228.724 C 243.166 229.031,241.584 229.467,240.793 229.691 C 238.771 230.263,234.461 231.431,233.313 231.717 C 232.783 231.849,232.311 232.084,232.264 232.239 C 232.217 232.393,232.069 232.783,231.935 233.105 C 231.687 233.700,230.524 237.778,230.346 238.672 C 230.293 238.940,229.893 240.435,229.458 241.992 C 229.023 243.550,228.594 245.176,228.506 245.605 C 228.417 246.035,228.220 246.738,228.067 247.168 C 227.759 248.038,227.080 250.474,226.161 254.004 C 225.826 255.293,225.388 256.875,225.188 257.520 C 224.428 259.972,224.219 260.728,224.219 261.026 C 224.219 261.195,224.138 261.486,224.040 261.673 C 223.942 261.859,223.670 262.803,223.435 263.770 C 223.201 264.736,222.828 266.143,222.608 266.895 C 222.387 267.646,222.188 268.394,222.165 268.555 C 222.143 268.716,222.072 268.979,222.009 269.141 C 221.868 269.495,220.648 273.996,219.996 276.563 C 219.737 277.583,219.445 278.594,219.346 278.809 C 219.248 279.023,219.032 279.727,218.867 280.371 C 218.137 283.215,216.410 289.649,215.905 291.406 C 215.766 291.890,214.982 294.746,214.163 297.754 C 213.344 300.762,212.457 303.970,212.194 304.883 C 211.930 305.796,211.413 307.686,211.046 309.082 C 210.678 310.479,210.203 312.236,209.989 312.988 C 209.776 313.740,209.154 315.981,208.607 317.969 C 208.061 319.956,207.303 322.681,206.923 324.023 C 205.900 327.637,205.782 328.060,204.594 332.422 C 203.993 334.624,203.254 337.305,202.949 338.379 C 202.645 339.453,202.156 341.255,201.861 342.383 C 201.567 343.511,201.215 344.785,201.078 345.215 C 200.942 345.645,200.674 346.545,200.482 347.217 C 200.290 347.888,200.073 348.437,200.000 348.437 C 199.861 348.437,199.798 348.235,198.929 345.020 C 198.638 343.945,197.915 341.396,197.320 339.355 C 196.123 335.243,196.197 335.511,195.244 331.836 C 194.570 329.234,193.150 324.089,192.793 322.949 C 192.692 322.627,192.382 321.528,192.105 320.508 C 191.442 318.064,189.671 311.661,189.350 310.547 C 189.211 310.063,188.905 308.921,188.669 308.008 C 187.901 305.026,187.462 303.425,187.307 303.027 C 187.128 302.570,186.874 301.667,186.319 299.512 C 185.907 297.911,185.511 296.465,184.316 292.188 C 183.941 290.845,183.055 287.637,182.347 285.059 C 181.638 282.480,180.933 279.932,180.779 279.395 C 180.625 278.857,180.176 277.231,179.781 275.781 C 179.386 274.331,178.986 272.881,178.893 272.559 C 178.255 270.349,177.829 268.791,177.046 265.804 C 176.555 263.933,176.114 262.271,176.066 262.109 C 176.017 261.948,175.800 261.113,175.584 260.254 C 175.367 259.395,175.015 258.140,174.802 257.467 C 174.589 256.793,174.414 256.073,174.414 255.867 C 174.414 255.661,174.338 255.445,174.244 255.387 C 174.151 255.329,174.020 254.940,173.953 254.522 C 173.886 254.103,173.296 251.882,172.641 249.586 C 171.635 246.055,170.940 243.532,170.605 242.188 C 170.564 242.026,170.345 241.147,170.118 240.234 C 169.890 239.321,169.631 238.398,169.542 238.184 C 169.452 237.969,169.235 237.222,169.058 236.523 C 168.882 235.825,168.508 234.540,168.229 233.667 L 167.721 232.081 164.866 231.260 C 163.296 230.808,160.166 229.927,157.910 229.303 C 155.654 228.678,152.886 227.898,151.758 227.571 C 150.630 227.244,148.521 226.669,147.070 226.293 C 145.620 225.917,143.994 225.479,143.457 225.320 C 141.147 224.638,139.438 224.156,137.793 223.725 C 133.797 222.678,130.867 221.872,129.395 221.414 C 128.535 221.146,126.777 220.659,125.488 220.332 C 124.199 220.004,122.529 219.559,121.777 219.343 C 117.915 218.233,116.708 217.897,114.648 217.355 C 113.413 217.030,110.864 216.327,108.984 215.793 C 107.104 215.258,104.248 214.473,102.637 214.048 C 99.606 213.248,99.263 213.155,95.508 212.102 C 94.272 211.756,92.496 211.267,91.560 211.017 C 90.625 210.767,88.296 210.118,86.385 209.576 C 84.474 209.034,82.207 208.402,81.348 208.172 C 77.636 207.178,74.004 206.163,72.363 205.661 C 72.041 205.562,69.668 204.909,67.090 204.209 C 64.512 203.510,61.150 202.590,59.620 202.164 C 58.089 201.739,56.578 201.350,56.261 201.300 C 55.945 201.250,55.395 201.118,55.040 201.007 C 54.685 200.896,53.735 200.612,52.930 200.375 L 51.465 199.945 53.418 199.382 C 54.492 199.073,56.514 198.517,57.910 198.147 C 59.307 197.776,60.889 197.352,61.426 197.203 C 61.963 197.055,64.380 196.395,66.797 195.738 C 69.214 195.081,72.598 194.139,74.316 193.646 C 76.035 193.152,77.969 192.617,78.613 192.455 C 79.258 192.294,81.499 191.680,83.594 191.090 C 87.520 189.985,91.768 188.807,92.969 188.489 C 94.719 188.026,96.100 187.643,97.271 187.294 C 97.972 187.085,98.692 186.914,98.871 186.914 C 99.050 186.914,99.250 186.826,99.316 186.719 C 99.383 186.611,99.667 186.523,99.949 186.523 C 100.230 186.523,100.730 186.432,101.060 186.319 C 101.390 186.207,103.110 185.719,104.883 185.235 C 106.655 184.751,108.677 184.192,109.375 183.992 C 110.994 183.528,117.100 181.843,117.871 181.647 C 118.193 181.566,119.204 181.272,120.117 180.995 C 121.030 180.718,122.612 180.269,123.633 179.997 C 126.103 179.339,132.212 177.668,134.766 176.952 C 135.894 176.636,137.168 176.295,137.598 176.195 C 138.712 175.936,144.020 174.464,145.410 174.029 C 146.055 173.828,147.944 173.300,149.609 172.856 C 151.274 172.412,152.900 171.963,153.223 171.859 C 153.545 171.755,155.435 171.227,157.422 170.687 C 163.620 169.000,163.943 168.912,164.844 168.660 C 165.327 168.524,166.162 168.295,166.699 168.150 C 167.236 168.006,167.698 167.876,167.725 167.862 C 167.829 167.809,168.799 164.433,169.543 161.531 C 169.970 159.870,170.450 158.068,170.610 157.527 C 171.157 155.682,172.305 151.663,172.564 150.684 C 172.968 149.157,174.574 143.400,174.989 141.992 C 175.195 141.294,175.597 139.844,175.883 138.770 C 176.489 136.487,179.073 127.255,180.366 122.754 C 180.859 121.035,181.438 119.014,181.651 118.262 C 182.024 116.947,183.494 111.451,183.688 110.645 C 183.740 110.430,183.997 109.595,184.259 108.789 C 184.521 107.983,185.047 106.138,185.428 104.688 C 185.809 103.237,186.438 100.996,186.826 99.707 C 187.214 98.418,187.695 96.748,187.894 95.996 C 188.289 94.502,189.178 91.201,189.829 88.814 C 190.056 87.978,190.360 86.924,190.503 86.470 C 190.647 86.016,190.875 85.249,191.011 84.766 C 191.148 84.282,191.374 83.491,191.514 83.008 C 191.654 82.524,192.046 81.074,192.384 79.785 C 192.723 78.496,193.214 76.782,193.474 75.977 C 193.987 74.392,194.801 71.505,195.718 68.012 C 196.037 66.801,196.422 65.439,196.575 64.985 C 196.727 64.531,197.166 63.018,197.550 61.621 C 200.046 52.537,200.051 52.523,200.310 53.662 M199.622 105.414 C 199.485 106.035,199.301 106.719,199.212 106.934 C 199.124 107.148,198.946 107.808,198.816 108.398 C 198.600 109.385,197.172 114.532,195.998 118.555 C 195.731 119.468,195.375 120.742,195.206 121.387 C 195.037 122.031,194.722 123.218,194.505 124.023 C 194.289 124.829,194.093 125.576,194.072 125.684 C 194.050 125.791,193.976 125.968,193.909 126.076 C 193.841 126.184,193.639 126.839,193.459 127.530 C 193.280 128.221,193.018 129.143,192.877 129.579 C 192.737 130.015,192.254 131.777,191.805 133.496 C 191.356 135.215,190.739 137.456,190.435 138.477 C 189.738 140.814,188.591 144.956,188.569 145.215 C 188.559 145.322,188.499 145.542,188.434 145.703 C 188.370 145.864,188.217 146.392,188.095 146.875 C 187.825 147.950,187.791 148.060,187.612 148.472 C 187.533 148.653,187.312 149.400,187.121 150.133 C 186.930 150.865,186.405 152.850,185.954 154.543 C 185.504 156.236,185.190 157.708,185.255 157.815 C 185.321 157.921,185.290 158.008,185.187 158.008 C 184.970 158.008,184.707 158.870,182.920 165.430 C 182.203 168.062,181.538 170.408,181.442 170.644 C 181.346 170.880,180.819 172.814,180.270 174.941 C 179.130 179.355,179.329 179.084,176.701 179.787 C 174.387 180.405,172.602 180.903,170.410 181.541 C 169.551 181.791,167.002 182.501,164.746 183.117 C 162.490 183.734,159.941 184.439,159.082 184.684 C 157.466 185.145,154.795 185.880,151.074 186.889 C 149.893 187.209,148.003 187.747,146.875 188.083 C 145.747 188.420,144.473 188.771,144.043 188.864 C 143.092 189.070,139.594 190.029,136.426 190.954 C 135.137 191.330,133.115 191.900,131.934 192.221 C 127.919 193.310,126.467 193.716,125.098 194.130 C 124.346 194.358,122.544 194.856,121.094 195.237 C 119.644 195.618,117.754 196.137,116.895 196.390 C 114.265 197.164,112.687 197.616,110.547 198.210 C 103.437 200.182,103.844 199.969,106.104 200.535 C 107.585 200.906,110.599 201.731,112.012 202.152 C 112.334 202.248,113.125 202.468,113.770 202.641 C 114.414 202.814,115.205 203.029,115.527 203.119 C 115.850 203.210,117.651 203.696,119.531 204.199 C 124.011 205.399,123.906 205.370,125.488 205.861 C 126.823 206.275,127.718 206.521,132.520 207.795 C 133.809 208.137,135.347 208.561,135.938 208.737 C 136.528 208.913,137.100 209.074,137.207 209.095 C 137.314 209.116,138.062 209.329,138.867 209.570 C 140.510 210.061,144.269 211.080,145.313 211.317 C 145.688 211.403,146.831 211.741,147.852 212.068 C 148.872 212.395,150.542 212.883,151.563 213.152 C 156.907 214.561,158.172 214.905,158.887 215.142 C 159.685 215.408,163.578 216.479,166.211 217.158 C 168.145 217.657,169.569 218.063,172.168 218.857 C 173.350 219.218,175.363 219.778,176.643 220.101 C 179.431 220.805,179.095 220.448,179.875 223.535 C 180.228 224.932,180.942 227.496,181.462 229.234 C 181.982 230.972,182.637 233.301,182.916 234.410 C 183.196 235.519,183.824 237.788,184.311 239.453 C 185.108 242.178,185.408 243.243,185.631 244.141 C 185.671 244.302,185.854 245.005,186.037 245.703 C 186.221 246.401,186.386 247.061,186.404 247.168 C 186.422 247.275,186.490 247.451,186.555 247.559 C 186.620 247.666,186.734 248.062,186.810 248.438 C 186.984 249.311,187.500 251.153,187.712 251.660 C 187.802 251.875,188.191 253.281,188.576 254.785 C 189.553 258.596,190.023 260.322,190.330 261.230 C 190.476 261.660,190.831 262.935,191.120 264.063 C 191.718 266.396,192.260 268.402,192.678 269.824 C 193.442 272.424,194.624 276.646,195.029 278.223 C 195.500 280.055,195.869 281.406,197.328 286.621 C 197.808 288.340,198.434 290.581,198.718 291.602 C 199.905 295.859,200.055 296.232,200.272 295.475 C 200.344 295.225,200.615 294.229,200.873 293.262 C 202.068 288.794,202.775 286.213,203.224 284.668 C 203.381 284.131,203.737 282.813,204.015 281.738 C 204.294 280.664,204.787 278.862,205.111 277.734 C 205.435 276.606,205.772 275.420,205.859 275.098 C 205.947 274.775,206.298 273.545,206.639 272.363 C 206.980 271.182,207.554 269.072,207.915 267.676 C 208.276 266.279,208.761 264.478,208.995 263.672 C 209.228 262.866,209.431 262.018,209.446 261.786 C 209.461 261.555,209.524 261.397,209.587 261.436 C 209.649 261.475,209.847 260.873,210.026 260.099 C 210.204 259.325,210.664 257.549,211.047 256.152 C 211.430 254.756,211.832 253.262,211.940 252.832 C 212.048 252.402,212.205 251.919,212.290 251.757 C 212.374 251.595,212.593 250.848,212.776 250.097 C 213.128 248.655,214.110 245.027,215.077 241.602 C 215.395 240.474,215.680 239.463,215.709 239.355 C 215.738 239.248,215.807 239.028,215.863 238.867 C 215.919 238.706,216.249 237.520,216.596 236.230 C 216.943 234.941,217.580 232.656,218.012 231.152 C 218.444 229.648,218.909 227.979,219.045 227.441 C 219.932 223.936,220.752 220.975,220.869 220.854 C 220.995 220.724,223.961 219.897,225.586 219.539 C 225.962 219.456,227.368 219.059,228.711 218.656 C 231.253 217.894,232.376 217.578,235.645 216.707 C 236.719 216.421,239.268 215.712,241.309 215.133 C 243.350 214.553,247.085 213.499,249.609 212.791 C 252.134 212.082,254.639 211.378,255.176 211.225 C 255.713 211.073,257.603 210.559,259.375 210.083 C 262.780 209.169,269.355 207.371,270.508 207.038 C 270.884 206.930,272.158 206.566,273.340 206.231 C 274.521 205.895,275.928 205.495,276.465 205.342 C 277.002 205.189,278.057 204.897,278.809 204.694 C 281.240 204.038,282.501 203.691,283.398 203.429 C 284.304 203.164,287.946 202.155,289.844 201.642 C 292.321 200.973,295.235 200.158,295.508 200.059 C 295.881 199.922,295.389 199.771,289.648 198.256 C 288.091 197.845,285.806 197.197,284.570 196.816 C 283.335 196.435,281.270 195.852,279.980 195.521 C 278.691 195.190,277.021 194.740,276.270 194.520 C 273.530 193.719,270.301 192.814,269.336 192.577 C 268.960 192.484,268.345 192.321,267.969 192.214 C 267.593 192.107,266.283 191.746,265.058 191.413 C 263.833 191.079,262.750 190.757,262.652 190.696 C 262.553 190.635,261.842 190.424,261.070 190.228 C 258.627 189.606,255.214 188.696,254.102 188.369 C 253.511 188.196,252.808 188.010,252.539 187.957 C 252.271 187.905,251.875 187.779,251.660 187.678 C 251.208 187.467,250.261 187.202,246.094 186.120 C 243.300 185.396,240.444 184.584,239.258 184.177 C 238.296 183.848,233.889 182.662,231.641 182.128 C 231.050 181.987,230.039 181.701,229.395 181.491 C 228.750 181.281,227.520 180.916,226.660 180.680 C 225.801 180.444,224.834 180.177,224.512 180.086 C 224.189 179.996,223.308 179.776,222.553 179.599 C 220.743 179.173,220.865 179.322,220.227 176.758 C 219.920 175.522,219.367 173.501,218.997 172.266 C 218.628 171.030,218.165 169.404,217.970 168.652 C 217.774 167.900,216.985 165.044,216.216 162.305 C 215.447 159.565,214.746 157.061,214.659 156.738 C 214.571 156.416,214.303 155.449,214.064 154.590 C 213.825 153.730,213.503 152.544,213.349 151.953 C 212.958 150.453,212.836 150.020,212.055 147.363 C 211.414 145.185,210.893 143.311,210.261 140.918 C 210.119 140.381,209.609 138.579,209.127 136.914 C 208.269 133.951,207.000 129.386,206.602 127.832 C 206.492 127.402,206.332 126.875,206.246 126.660 C 206.160 126.445,205.896 125.522,205.658 124.609 C 205.420 123.696,205.156 122.773,205.072 122.559 C 204.988 122.344,204.813 121.729,204.683 121.191 C 204.553 120.654,204.369 119.951,204.274 119.629 C 204.179 119.307,203.625 117.329,203.044 115.234 C 202.462 113.140,201.885 111.074,201.761 110.645 C 201.328 109.142,200.749 106.924,200.494 105.792 C 200.128 104.173,199.915 104.081,199.622 105.414 M201.171 129.688 C 201.520 131.030,202.242 133.623,202.775 135.449 C 203.308 137.275,203.905 139.385,204.101 140.137 C 204.395 141.259,204.985 143.474,205.377 144.922 C 205.420 145.083,205.554 145.610,205.674 146.094 C 205.794 146.577,205.971 147.148,206.067 147.363 C 206.163 147.578,206.413 148.413,206.624 149.219 C 207.889 154.055,209.378 159.355,210.649 163.548 C 210.808 164.070,210.938 164.617,210.938 164.762 C 210.938 164.907,211.057 165.402,211.202 165.862 C 211.348 166.323,211.565 167.051,211.685 167.480 C 211.804 167.910,212.121 169.009,212.388 169.922 C 212.981 171.952,214.233 176.571,214.479 177.637 C 214.578 178.066,214.825 178.989,215.028 179.688 C 216.315 184.118,216.137 183.720,216.942 183.952 C 217.345 184.068,218.115 184.289,218.652 184.444 C 220.003 184.835,222.250 185.446,225.586 186.332 C 227.144 186.745,228.813 187.226,229.297 187.401 C 229.780 187.575,230.659 187.841,231.250 187.992 C 231.841 188.142,233.159 188.497,234.180 188.780 C 235.200 189.063,236.475 189.407,237.012 189.546 C 237.549 189.685,239.131 190.124,240.527 190.523 C 242.842 191.183,243.923 191.479,248.730 192.762 C 250.793 193.313,251.578 193.547,252.051 193.750 C 252.375 193.890,256.729 195.033,260.352 195.928 C 260.835 196.048,261.406 196.216,261.621 196.302 C 261.836 196.387,262.891 196.692,263.965 196.979 C 265.687 197.439,269.303 198.421,271.582 199.049 C 272.012 199.167,272.583 199.338,272.852 199.429 C 273.120 199.519,273.683 199.653,274.102 199.726 C 274.812 199.850,274.659 199.917,271.856 200.708 C 268.085 201.772,260.574 203.853,259.277 204.192 C 258.740 204.333,256.675 204.906,254.688 205.466 C 252.700 206.026,250.635 206.596,250.098 206.733 C 248.430 207.157,241.774 208.997,240.934 209.267 C 240.110 209.531,237.470 210.268,231.738 211.834 C 229.912 212.333,227.539 212.990,226.465 213.294 C 222.714 214.357,217.476 215.785,216.867 215.911 C 216.315 216.025,216.224 216.149,215.957 217.150 C 215.794 217.761,215.467 218.921,215.231 219.727 C 214.995 220.532,214.500 222.290,214.131 223.633 C 213.762 224.976,213.285 226.689,213.072 227.441 C 212.859 228.193,212.515 229.424,212.309 230.176 C 212.103 230.928,211.663 232.510,211.332 233.691 C 211.000 234.873,210.549 236.543,210.329 237.402 C 210.109 238.262,209.729 239.624,209.485 240.430 C 208.656 243.162,206.678 250.371,206.564 251.074 C 206.546 251.182,206.473 251.364,206.401 251.479 C 206.329 251.593,206.229 251.901,206.179 252.162 C 206.021 252.991,204.841 257.300,204.633 257.813 C 204.568 257.974,204.298 258.940,204.033 259.961 C 203.768 260.981,203.183 263.179,202.732 264.844 C 202.282 266.509,201.760 268.486,201.572 269.238 C 201.025 271.436,200.128 274.219,199.968 274.219 C 199.887 274.219,199.730 273.889,199.619 273.486 C 198.850 270.688,198.192 268.287,197.919 267.285 C 197.744 266.641,197.299 265.103,196.930 263.867 C 196.343 261.902,195.519 258.834,194.411 254.492 C 194.233 253.794,193.876 252.476,193.618 251.563 C 193.360 250.649,193.029 249.463,192.883 248.926 C 192.570 247.775,190.764 241.321,190.205 239.355 C 189.991 238.604,189.613 237.197,189.365 236.230 C 188.412 232.516,187.651 229.743,187.297 228.689 C 187.094 228.087,186.844 227.252,186.741 226.834 C 186.190 224.606,183.831 216.244,183.705 216.073 C 183.689 216.050,183.173 215.896,182.560 215.731 C 181.476 215.438,180.988 215.301,177.930 214.434 C 177.124 214.206,175.938 213.904,175.293 213.764 C 174.648 213.624,171.924 212.883,169.238 212.118 C 166.553 211.352,163.345 210.455,162.109 210.125 C 160.874 209.794,159.556 209.405,159.180 209.259 C 158.804 209.114,157.617 208.764,156.543 208.481 C 152.599 207.443,151.820 207.235,150.098 206.765 C 149.131 206.502,147.593 206.064,146.680 205.792 C 144.630 205.182,142.241 204.535,140.820 204.204 C 140.229 204.066,139.043 203.735,138.184 203.468 C 136.718 203.013,135.595 202.698,133.008 202.019 C 132.417 201.863,131.670 201.664,131.348 201.575 C 131.025 201.487,130.015 201.221,129.102 200.985 C 126.679 200.358,125.037 199.823,125.510 199.813 C 125.737 199.808,127.187 199.447,128.733 199.010 C 130.278 198.573,132.554 197.954,133.789 197.634 C 135.024 197.315,136.255 196.975,136.523 196.879 C 136.792 196.784,138.550 196.300,140.430 195.804 C 146.637 194.167,147.551 193.919,148.340 193.663 C 148.770 193.523,149.648 193.264,150.293 193.087 C 153.365 192.245,157.403 191.156,158.105 190.981 C 158.535 190.874,159.063 190.711,159.277 190.617 C 159.492 190.524,160.063 190.346,160.547 190.222 C 161.030 190.098,161.602 189.924,161.816 189.836 C 162.031 189.747,162.471 189.637,162.793 189.591 C 163.335 189.513,165.403 188.953,169.531 187.763 C 170.444 187.500,171.631 187.165,172.168 187.019 C 173.855 186.560,176.757 185.737,179.492 184.942 C 180.942 184.520,182.436 184.128,182.810 184.072 C 183.737 183.932,184.034 183.332,184.834 179.980 C 184.988 179.336,185.307 178.105,185.543 177.246 C 186.079 175.289,186.431 173.979,186.721 172.852 C 186.846 172.368,187.026 171.797,187.122 171.582 C 187.314 171.152,188.744 165.933,188.968 164.844 C 189.046 164.468,189.573 162.622,190.139 160.742 C 190.705 158.862,191.453 156.270,191.801 154.980 C 192.148 153.691,192.695 151.714,193.015 150.586 C 193.794 147.846,194.490 145.317,194.923 143.652 C 195.888 139.949,196.144 139.021,196.676 137.305 C 196.991 136.284,197.830 133.345,198.539 130.773 C 199.248 128.201,199.883 126.008,199.950 125.900 C 200.089 125.674,200.286 126.283,201.171 129.688 M214.005 243.406 C 213.959 243.649,213.919 243.496,213.916 243.066 C 213.914 242.637,213.952 242.438,214.001 242.625 C 214.050 242.811,214.052 243.163,214.005 243.406 M186.072 243.701 C 186.023 243.889,185.983 243.735,185.983 243.359 C 185.983 242.983,186.023 242.830,186.072 243.018 C 186.121 243.206,186.121 243.513,186.072 243.701 "
            stroke="none" fill="#fbfbfb00" fill-rule="evenodd"></path>
        <path id="path2" d="" stroke="none" fill="#979896" fill-rule="evenodd"></path>
        <path id="path3"
            d="M213.916 243.066 C 213.919 243.496,213.959 243.649,214.005 243.406 C 214.052 243.163,214.050 242.811,214.001 242.625 C 213.952 242.438,213.914 242.637,213.916 243.066 M185.983 243.359 C 185.983 243.735,186.023 243.889,186.072 243.701 C 186.121 243.513,186.121 243.206,186.072 243.018 C 186.023 242.830,185.983 242.983,185.983 243.359 "
            stroke="none" fill="#c8c9c7" fill-rule="evenodd"></path>
        <path id="path4" d="" stroke="none" fill="#747c74" fill-rule="evenodd"></path>
    </g>
</svg>